<?xml version="1.0" encoding="utf-8" ?><svg xmlns="http://www.w3.org/2000/svg" xmlns:xlink="http://www.w3.org/1999/xlink" width="559" height="559" viewBox="0 0 559 559"><path fill="#D8A92B" d="M258.472 0L298.833 0C300.949 1.03535 312.137 1.81097 315 2.14145C318.578 2.5862 322.147 3.11136 325.702 3.71653C337.04 5.52303 348.25 8.0641 359.259 11.3237C425.766 30.7058 482.645 74.212 518.761 133.326C538.959 166.473 552.417 203.976 557.171 242.59C557.404 244.48 558.281 254.907 559 256.003L559 303.676C558.57 304.269 555.633 326.69 555.165 329.454C553.302 340.071 550.84 350.574 547.789 360.912C519.395 453.533 445.201 524.934 351.56 549.755C339.885 552.904 327.999 555.209 315.993 556.653C313.234 557.006 301.235 557.967 299.606 559L261.855 559C260.086 557.821 249.752 557.152 246.931 556.83C235.041 555.47 222.142 553.662 210.562 550.641C175.75 541.713 142.904 526.382 113.702 505.432C67.0081 471.595 31.9415 424.125 13.3235 369.548C10.5932 361.299 6.82651 348.601 5.07562 340.061C3.88951 334.08 2.85045 328.071 1.95939 322.039C1.61848 319.574 1.06423 312.004 0 310.52L0 248.117C0.659305 247.149 1.13069 241.313 1.33563 239.826C2.10496 233.904 3.09095 228.012 4.29164 222.162C6.88435 209.563 10.3346 197.155 14.6184 185.026C44.3119 101.558 112.048 37.2669 196.95 11.9666C210.585 7.85201 224.515 4.78583 238.617 2.79483C241.776 2.34741 256.527 1.10878 258.472 0Z"/><path fill="#F4DF9F" d="M270.174 14.4086C416.564 9.51556 539.18 124.27 543.984 270.664C548.787 417.058 433.957 539.603 287.561 544.317C141.291 549.027 18.8746 434.318 14.0754 288.051C9.27619 141.784 123.91 19.2974 270.174 14.4086Z"/><path fill="#F7F1D3" d="M270.047 35.8471C404.577 30.888 517.643 135.953 522.553 270.485C527.463 405.017 422.356 518.044 287.823 522.905C153.358 527.763 40.4025 422.723 35.4952 288.26C30.5879 153.798 135.587 40.8036 270.047 35.8471Z"/><path fill="#F4DF9F" d="M263.822 57.729C386.358 49.3346 492.456 141.963 500.673 264.511C508.89 387.06 416.108 493.023 293.548 501.063C171.238 509.087 65.5383 416.536 57.338 294.238C49.1376 171.94 141.535 66.1062 263.822 57.729Z"/><path fill="#F7F1D3" d="M271.692 98.8594C371.402 94.8284 455.494 172.408 459.497 272.119C463.5 371.831 385.896 455.901 286.183 459.876C186.51 463.848 102.482 386.283 98.4808 286.611C94.4798 186.94 172.021 102.889 271.692 98.8594Z"/><path fill="#F4DF9F" d="M274.634 152.287C344.838 149.869 403.733 204.771 406.243 274.972C408.752 345.172 353.927 404.139 283.73 406.74C213.403 409.346 154.304 354.397 151.79 284.067C149.276 213.737 204.301 154.71 274.634 152.287Z"/><path fill="#593117" d="M277.54 189.518C280.483 189.47 284.083 189.702 286.465 191.471C303.489 204.118 287.628 236.209 279.727 249.052L279.367 249.573L278.921 249.608C273.338 240.98 268.748 230.644 265.781 220.848C262.398 209.677 262.671 191.58 277.54 189.518Z"/><path fill="#593117" d="M259.95 299.43L260.297 299.701C260.369 301.569 259.439 305.483 259.051 307.419C256.785 317.992 253.578 329.772 247.196 338.658C240.948 347.356 231.35 351.949 221.875 344.823C216.676 340.041 216.039 332.865 219.077 326.859C225.935 313.299 246.483 304.298 259.95 299.43Z"/><path fill="#593117" d="M345.644 236.752C346.25 236.72 346.857 236.706 347.464 236.711C361.5 236.883 367.583 252.342 357.342 261.701C348.889 269.424 335.292 270.114 324.332 269.763C318.251 269.692 312.113 268.638 306.01 268.222L306.869 267.146C316.12 255.591 330.085 238.481 345.644 236.752Z"/><path fill="#593117" d="M209.075 236.758C210.855 236.652 212.643 236.74 214.405 237.02C227.894 239.292 244.019 257.248 251.772 268.239C247.236 268.573 242.419 269.192 237.806 269.573C224.994 270.866 198.075 269.314 195.684 252.689C195.171 248.922 196.233 245.11 198.62 242.15C201.481 238.565 204.727 237.31 209.075 236.758Z"/><path fill="#593117" d="M297.937 299.38C308.909 302.465 324.252 310.805 332.671 318.274C339.894 324.681 344.586 336.195 337.08 344.378C334.821 346.455 331.253 348.272 328.236 348.369C308.443 349.004 298.835 314.23 297.937 299.38Z"/></svg>